<svg xmlns="http://www.w3.org/2000/svg" data-name="Layer 17" viewBox="0 0 100 100" x="0px" y="0px"><title>restaurant_food_cafe</title><path d="M89.194,48.548H87.488a4.343,4.343,0,0,0-4.1-5.806H82.625A31.979,31.979,0,0,0,54.471,12.483a4.962,4.962,0,0,0,.61-2.4,5.081,5.081,0,0,0-10.161,0,4.962,4.962,0,0,0,.61,2.4A31.979,31.979,0,0,0,17.375,42.742H16.613a4.343,4.343,0,0,0-4.1,5.806H10.806A5.814,5.814,0,0,0,5,54.355V76.129a1.456,1.456,0,0,0,1.452,1.452,9.9,9.9,0,0,0,5.806-1.706V93.548A1.456,1.456,0,0,0,13.71,95h7.258a1.456,1.456,0,0,0,1.452-1.452V75.875a9.908,9.908,0,0,0,5.814,1.706,10.254,10.254,0,0,0,6.227-1.967A7.433,7.433,0,0,1,39.12,74.1a7.509,7.509,0,0,1,4.66,1.51,10.8,10.8,0,0,0,12.448,0,7.957,7.957,0,0,1,9.327,0,10.18,10.18,0,0,0,6.22,1.974,9.883,9.883,0,0,0,5.806-1.706V93.548A1.456,1.456,0,0,0,79.032,95H86.29a1.456,1.456,0,0,0,1.452-1.452V75.875a9.9,9.9,0,0,0,5.806,1.706A1.456,1.456,0,0,0,95,76.129V54.355A5.814,5.814,0,0,0,89.194,48.548ZM50,7.9a2.177,2.177,0,1,1-2.177,2.177A2.184,2.184,0,0,1,50,7.9Zm-0.726,7.258h1.452a29.064,29.064,0,0,1,29,27.581H20.278A29.064,29.064,0,0,1,49.274,15.161ZM19.516,92.1H15.161V74.373a7.759,7.759,0,0,1,2.177-.276,7.722,7.722,0,0,1,2.177.276V92.1Zm65.323,0H80.484V74.373a8.734,8.734,0,0,1,4.355,0V92.1ZM83.387,48.548H16.613a1.452,1.452,0,1,1,0-2.9H83.387A1.452,1.452,0,1,1,83.387,48.548Z"></path><path d="M30.858,24.664c-0.629.594-1.238,1.226-1.809,1.88a1.451,1.451,0,1,0,2.186,1.91c0.51-.584,1.054-1.149,1.616-1.679A1.452,1.452,0,0,0,30.858,24.664Z"></path><path d="M28.249,29.877a1.451,1.451,0,0,0-1.992.494,26.643,26.643,0,0,0-3.3,8.452,1.452,1.452,0,1,0,2.845.58,23.725,23.725,0,0,1,2.939-7.533A1.452,1.452,0,0,0,28.249,29.877Z"></path></svg>