<svg xmlns="http://www.w3.org/2000/svg" xmlns:xlink="http://www.w3.org/1999/xlink" version="1.1" x="0px" y="0px" viewBox="0 0 60 60" style="enable-background:new 0 0 60 60;" xml:space="preserve"><path d="M11.4,14.1v9.7c0,12.2,6.8,23.8,18.1,31C29.6,55,29.8,55,30,55c0.2,0,0.4,0,0.5-0.2c11.3-7.2,18-18.8,18-31v-9.7  c0-0.5-0.4-1-0.9-1c-7.2-0.6-12.7-3.1-16.9-7.8C30.5,5.1,30.3,5,30,5c-0.3,0-0.6,0.1-0.8,0.4c-3.8,4.8-9.3,7.3-16.9,7.7  C11.8,13.1,11.4,13.6,11.4,14.1z M30,17.9c6.3,0,11.4,5.1,11.4,11.4S36.3,40.6,30,40.6s-11.4-5.1-11.4-11.4S23.7,17.9,30,17.9z"></path><path d="M30,38.6c5.2,0,9.4-4.2,9.4-9.4c0-5.2-4.2-9.4-9.4-9.4s-9.4,4.2-9.4,9.4C20.6,34.4,24.8,38.6,30,38.6z M25.1,28.9  c0.4-0.4,1-0.4,1.4,0l1.9,1.9l5.1-5.1c0.4-0.4,1-0.4,1.4,0s0.4,1,0,1.4l-5.8,5.8c-0.2,0.2-0.4,0.3-0.7,0.3s-0.5-0.1-0.7-0.3  l-2.6-2.6C24.7,29.9,24.7,29.2,25.1,28.9z"></path></svg>