<svg xmlns="http://www.w3.org/2000/svg" viewBox="0 0 64 64" x="0px" y="0px"><g data-name="Layer 2"><path d="M8,48.32a.9954.9954,0,0,0,.31-1.38,28.0086,28.0086,0,0,1,1.72-32.29,2.7026,2.7026,0,0,0,1.1.22,3.0088,3.0088,0,0,0,3-3,2.8428,2.8428,0,0,0-.26-1.2A27.9822,27.9822,0,0,1,48.25,9.2a1.0092,1.0092,0,0,0,1.4-.24.9957.9957,0,0,0-.24-1.39,29.9691,29.9691,0,0,0-36.9,1.64,2.9067,2.9067,0,0,0-1.38-.34,3.0024,3.0024,0,0,0-3,3,3.0328,3.0328,0,0,0,.38,1.47A30.0217,30.0217,0,0,0,6.62,48.01a1.004,1.004,0,0,0,.85.46A1.04,1.04,0,0,0,8,48.32Z"></path><path d="M62,32a29.7994,29.7994,0,0,0-5.5684-17.4141,1,1,0,0,0-1.6279,1.1621,27.9974,27.9974,0,0,1-7.3389,39.5874,2.9711,2.9711,0,0,0-1.8994-.6972,3.0033,3.0033,0,0,0-3,3c0,.0979.02.19.029.286A28.0273,28.0273,0,0,1,29.5679,59.896a1,1,0,1,0-.1709,1.9922C30.2588,61.9624,31.1348,62,32,62a29.825,29.825,0,0,0,11.4332-2.2559,2.9967,2.9967,0,0,0,5.0724-2.698A29.9055,29.9055,0,0,0,62,32Z"></path><path d="M42.1411,16.1694a1,1,0,0,0,.5181-1.8559A20.4192,20.4192,0,0,0,34.88,11.56a2.9828,2.9828,0,0,0-5.7606.0007A20.7375,20.7375,0,0,0,11.9375,27.1021a1,1,0,0,0,.7354,1.208.9892.9892,0,0,0,.2373.0283,1,1,0,0,0,.9707-.7637A18.7252,18.7252,0,0,1,29.26,13.563a2.9924,2.9924,0,0,0,5.4791.0021,18.4146,18.4146,0,0,1,6.886,2.46A.995.995,0,0,0,42.1411,16.1694Z"></path><path d="M52.1935,36.3116a20.6757,20.6757,0,0,0-2.507-14.9708,1,1,0,0,0-1.7119,1.0342,18.5491,18.5491,0,0,1,2.2848,13.3672,2.9829,2.9829,0,0,0-1.8869,5.1566,18.6341,18.6341,0,0,1-11.9472,9.22,1,1,0,0,0,.2353,1.9717.9892.9892,0,0,0,.2373-.0283A20.643,20.643,0,0,0,50.2233,41.7044c.069.0048.1348.0207.2049.0207a2.992,2.992,0,0,0,1.7653-5.4135Z"></path><path d="M32,20.3931a11.538,11.538,0,0,0-10.4282,6.5053,1,1,0,1,0,1.7959.88A9.623,9.623,0,0,1,35.041,22.8838a1,1,0,1,0,.6319-1.8975A11.5992,11.5992,0,0,0,32,20.3931Z"></path><path d="M36.2217,40.6323a1,1,0,1,0,.88,1.7959,11.6226,11.6226,0,0,0,5.9121-14.1011,1,1,0,0,0-1.8975.6319,9.623,9.623,0,0,1-4.8945,11.6733Z"></path><path d="M61.71,2.29a1.008,1.008,0,0,0-1.42,0L24.23,38.35A4.235,4.235,0,0,0,22,37.73a4.005,4.005,0,0,0-.4048.0373c.6191.7345,1.3443,1.534,2.229,2.4187.8955.8954,1.6969,1.6328,2.4259,2.2613a4.2466,4.2466,0,0,0-.6-2.6773L61.71,3.71A1.008,1.008,0,0,0,61.71,2.29Z"></path><path d="M30.71,38.52a.9949.9949,0,1,0-1.54,1.26c3.53,4.33,4,7.12,3.48,7.64l-.01.01c-.58.58-3.5553.8446-10.23-5.83s-6.16-9.89-5.82-10.23c.53-.53,3.32-.05,7.64,3.48A1.0019,1.0019,0,1,0,25.5,33.3c-3.56-2.9-7.683-5.2777-10.18-3.47-1.0678.969-6.9833,5.2-3.2091,14.702a6.8415,6.8415,0,0,1,10.7065,4.5491l.5628,3.7114a10.9421,10.9421,0,0,0,1.17.0675,12.8865,12.8865,0,0,0,9.64-4.18C36.058,46.3839,33.61,42.06,30.71,38.52Z"></path><path d="M24.2,60H22.45L20.84,49.38a4.8247,4.8247,0,0,0-9.54,0L9.69,60H7.95a1,1,0,0,0,0,2H24.2a1,1,0,1,0,0-2Zm-7.1277-8.144a1,1,0,0,1-2,0V50.65a1,1,0,0,1,2,0Z"></path></g></svg>