<svg xmlns="http://www.w3.org/2000/svg" data-name="Layer 2" viewBox="0 0 64 64" x="0px" y="0px"><title>hobbies_freetime_exercise</title><path d="M60,3H4A1,1,0,0,0,3,4V49a5,5,0,0,0,5,5H9.659l-0.65,5.89a0.968,0.968,0,0,0,.24.78A1.022,1.022,0,0,0,10,61H28a1.022,1.022,0,0,0,.75-0.33,0.968,0.968,0,0,0,.24-0.78L28.339,54H33v6a1,1,0,0,0,1,1H52a1,1,0,0,0,1-1V54h3a5,5,0,0,0,5-5V4A1,1,0,0,0,60,3ZM16,6a1,1,0,1,1-1,1A1,1,0,0,1,16,6ZM12,6a1,1,0,1,1-1,1A1,1,0,0,1,12,6ZM8,6A1,1,0,1,1,7,7,1,1,0,0,1,8,6ZM21,41H17V39a2,2,0,0,1,4,0v2ZM45,59H41V49h4V59Zm1-12H40V44h6v3Zm13,2a3.009,3.009,0,0,1-3,3H53V49h1a1,1,0,0,0,1-1V43a1,1,0,0,0-1-1H32a1,1,0,0,0-1,1v5a1,1,0,0,0,1,1h1v3H28.109L27,42V41.98l-0.01-.09A0.989,0.989,0,0,0,26,41H23V39a4,4,0,0,0-8,0v2H12a0.989,0.989,0,0,0-.99.89L9.889,52H8a3.009,3.009,0,0,1-3-3V11H59V49Z"></path><path d="M11,27H26a1,1,0,0,0,0-2H11A1,1,0,0,0,11,27Z"></path><path d="M11,31H21a1,1,0,0,0,0-2H11A1,1,0,0,0,11,31Z"></path><path d="M26,29H24a1,1,0,0,0,0,2h2A1,1,0,0,0,26,29Z"></path><path d="M13.293,22.707a1,1,0,0,0,1.414,0l5-5a1,1,0,0,0-1.414-1.414L14,20.586l-2.293-2.293a1,1,0,0,0-1.414,1.414Z"></path><path d="M33,39H53a1,1,0,0,0,1-1V23a1,1,0,0,0-1-1H49V20a6,6,0,0,0-12,0v2H33a1,1,0,0,0-1,1V38A1,1,0,0,0,33,39Zm6-19a4,4,0,0,1,8,0v2H39V20Z"></path></svg>