<svg xmlns="http://www.w3.org/2000/svg" xmlns:xlink="http://www.w3.org/1999/xlink" version="1.1" x="0px" y="0px" viewBox="0 0 60 60" style="enable-background:new 0 0 60 60;" xml:space="preserve"><path d="M30.536499,9.5634155c-0.3053589-0.2641602-0.7675781-0.2641602-1.072998,0  c-5.3320313,4.6138916-12.7687378,5.1256104-12.8513184,5.1338501c-0.4291992,0.0247803-0.7675781,0.3880005-0.7675781,0.8253784  v15.616333c0,8.7821655,5.5795898,16.5986328,13.8912964,19.446167C29.8184204,50.6182251,29.9091797,50.6347046,30,50.6347046  s0.1815796-0.0164795,0.2723999-0.0495605c8.3034058-2.8475342,13.8829956-10.6640015,13.8829956-19.446167V15.522644  c0-0.4373779-0.3383789-0.8005981-0.7675781-0.8253784C43.3135376,14.6890259,35.8850098,14.1855469,30.536499,9.5634155z   M40.4436646,24.8973999L26.741394,38.6005249c-0.1552124,0.1543579-0.3648682,0.2418213-0.5835571,0.2418213  c-0.21875,0-0.4291992-0.0874634-0.5835571-0.2418213l-6.0162964-6.0170898c-0.3226929-0.3226929-0.3226929-0.8443604,0-1.1671143  l2.3342285-2.3341675c0.3227539-0.3227539,0.8443604-0.3227539,1.1671143,0l3.0985107,3.0977173l10.7844849-10.7836914  c0.3218994-0.3228149,0.8444214-0.3228149,1.1671143,0l2.3342285,2.3341675  C40.7663574,24.0531006,40.7663574,24.574707,40.4436646,24.8973999z"></path></svg>