<svg xmlns="http://www.w3.org/2000/svg" data-name="Layer 14" viewBox="0 0 100 100" x="0px" y="0px"><title>restaurant_food_cafe</title><path d="M79.032,58.768V36.21H86.29a1.456,1.456,0,0,0,1.452-1.452V18.79a1.456,1.456,0,0,0-1.452-1.452H73.226a10.163,10.163,0,0,0-9.486,6.532H58.347a3.992,3.992,0,0,0,0,7.984h4.718v31.21a7.984,7.984,0,1,1-15.968,0V45.623a4.714,4.714,0,0,0-.363-9.414h-9.8V6.452A1.456,1.456,0,0,0,35.484,5H6.452A1.456,1.456,0,0,0,5,6.452V44.194a1.456,1.456,0,0,0,1.452,1.452H17A23.24,23.24,0,0,0,5,65.968V80.484a1.456,1.456,0,0,0,1.452,1.452h5.879a14.516,14.516,0,0,0,28.887,0H61.685a14.516,14.516,0,0,0,28.887,0h2.976A1.456,1.456,0,0,0,95,80.484V76.129A17.446,17.446,0,0,0,79.032,58.768ZM19.516,19.516a1.452,1.452,0,0,1,2.9,0v0.726a1.452,1.452,0,1,1-2.9,0V19.516ZM7.9,42.742v-30.9l8.281,12a5.811,5.811,0,0,0,9.566,0l8.281-12v30.9H7.9Zm18.871,45a7.277,7.277,0,0,1-7.113-5.806H33.887A7.277,7.277,0,0,1,26.774,87.742Zm12.259-21.3a1.454,1.454,0,0,1-1.844.9C18.231,60.814,9.536,69.611,7.9,71.549V67.514c4.239-3.52,13.8-8.572,30.23-2.918A1.448,1.448,0,0,1,39.033,66.439ZM38.387,52.177h-8.71a1.452,1.452,0,0,1,0-2.9h8.71A1.452,1.452,0,1,1,38.387,52.177Zm-1.452-9.435V39.113h9.8a1.815,1.815,0,1,1,0,3.629h-9.8Zm26.129-13.79H58.347a1.089,1.089,0,0,1,0-2.177h4.718v2.177Zm10.161-8.71H84.839V33.306h-5.93a8.715,8.715,0,0,0-8.586-7.258h-4.21A7.277,7.277,0,0,1,73.226,20.242Zm2.9,67.5a7.277,7.277,0,0,1-7.113-5.806H83.242A7.277,7.277,0,0,1,76.129,87.742Z"></path></svg>