<svg xmlns="http://www.w3.org/2000/svg" data-name="Layer 12" viewBox="0 0 100 100" x="0px" y="0px"><title>restaurant_food_cafe</title><path d="M86.29,92.1H51.452V65.162l4.311,1.227a7.251,7.251,0,0,0,8.281-2.01,0.633,0.633,0,0,0,.051-0.073L75.643,48.948,83.6,44.665a3.724,3.724,0,0,0-1.764-7H72.6a3.622,3.622,0,0,0-2.41.915l-10.655,9.4-5.516-5.988a10.168,10.168,0,0,0-6.409-3.208l-9.225-.973v-1.6H48.548a1.454,1.454,0,0,0,1.336-2.025l-0.421-.973a20.206,20.206,0,0,1-1.64-8.006v-5.69A14.531,14.531,0,0,0,33.306,5H28.952A14.531,14.531,0,0,0,14.435,19.516v5.69a20.206,20.206,0,0,1-1.64,8.006l-0.421.973A1.454,1.454,0,0,0,13.71,36.21H23.871v1.655l-10.88,1.655A8.75,8.75,0,0,0,6.016,47.4L5,66.614v0.08c0,2.1,1.524,4.355,5.806,4.355h1.452V92.1H6.452a1.452,1.452,0,0,0,0,2.9H86.29A1.452,1.452,0,0,0,86.29,92.1ZM72.123,40.746a0.728,0.728,0,0,1,.479-0.181h9.24a0.824,0.824,0,0,1,.392,1.546l-7.519,4.043-5.189-3.114Zm-49.7-13.972V18.006a5.487,5.487,0,0,0,1.851.341,5.563,5.563,0,0,0,3.194-1.009,15.935,15.935,0,0,0,7.556,2.4,8.823,8.823,0,0,0,4.819-1.328v8.361a5.814,5.814,0,0,1-5.806,5.806H28.226A5.814,5.814,0,0,1,22.419,26.774Zm13.065,8.434V41.16l-4.108,2.257-4.6-2.3V35.208a8.649,8.649,0,0,0,2.177.276h4.355A8.648,8.648,0,0,0,35.484,35.208ZM20.968,50a1.448,1.448,0,0,1,.755-1.27l6.561-3.615,3.157,1.575-7.57,4.166V58.71h-2.9V50Zm2.9,42.1h-2.9V84.113h2.9V92.1Zm4.355-3.629a1.452,1.452,0,0,1-2.9,0V87.742a1.452,1.452,0,0,1,2.9,0v0.726Zm0-8.71a1.456,1.456,0,0,1-1.452,1.452H19.516a1.456,1.456,0,0,1-1.452-1.452V78.306H28.226v1.452Zm0-4.355H18.065V61.613H28.226V75.4Zm0-20.323a1.452,1.452,0,1,1-2.9,0V54.355a1.452,1.452,0,0,1,2.9,0v0.726Zm10.161,13.19a1.45,1.45,0,0,1-1.827,1.4,20.146,20.146,0,0,0-4.706-.625H31.129V63.065h5.806a1.456,1.456,0,0,1,1.452,1.452v3.755ZM42.742,52.9H37.661a1.452,1.452,0,0,1,0-2.9h5.081A1.452,1.452,0,1,1,42.742,52.9Z"></path><path d="M31.129,31.129A5.261,5.261,0,0,0,35.2,29.084a1.452,1.452,0,1,0-2.341-1.717,2.178,2.178,0,0,1-3.475-.013,1.452,1.452,0,0,0-2.332,1.73A5.261,5.261,0,0,0,31.129,31.129Z"></path><path d="M58.71,89.194a1.456,1.456,0,0,0,1.452,1.452H92.1a1.456,1.456,0,0,0,1.452-1.452A15.987,15.987,0,0,0,77.581,73.226h-2.9A15.987,15.987,0,0,0,58.71,89.194Z"></path><path d="M58.71,36.21H93.548a1.452,1.452,0,0,0,0-2.9H58.71A1.452,1.452,0,0,0,58.71,36.21Z"></path><path d="M69.234,31.855h13.79a3.992,3.992,0,0,0,0-7.984H69.234A3.992,3.992,0,1,0,69.234,31.855Z"></path><path d="M70.685,22.419H81.573a3.992,3.992,0,0,0,0-7.984h-3l1.6-2A1.451,1.451,0,1,0,77.9,10.625l-1.771,2.214-1.771-2.214a1.451,1.451,0,1,0-2.265,1.815l1.6,2h-3A3.992,3.992,0,0,0,70.685,22.419Z"></path><path d="M93.548,92.1h-2.9a1.452,1.452,0,0,0,0,2.9h2.9A1.452,1.452,0,0,0,93.548,92.1Z"></path><circle cx="76.129" cy="71.774" r="1.452"></circle></svg>