<svg xmlns="http://www.w3.org/2000/svg" data-name="Layer 20" viewBox="0 0 64 64" x="0px" y="0px"><title>hobbies_freetime_exercise</title><path d="M11,11h4V3H11A4,4,0,0,0,11,11Z"></path><path d="M51.51,10.86l5-3a1,1,0,0,0,0-1.72l-5-3A1,1,0,0,0,51,3H17v8H51A1,1,0,0,0,51.51,10.86Z"></path><path d="M60,19H57V16a1,1,0,0,0-1-1H35a3.984,3.984,0,0,0-3,1.36A3.984,3.984,0,0,0,29,15H8a1,1,0,0,0-1,1v3H4a1,1,0,0,0-1,1V56a1,1,0,0,0,1,1H37v3a1,1,0,0,0,1.45.89L40,60.12l1.55,0.77A1.029,1.029,0,0,0,42,61a1.014,1.014,0,0,0,.53-0.15A1,1,0,0,0,43,60V57H60a1,1,0,0,0,1-1V20A1,1,0,0,0,60,19ZM31,49a2.006,2.006,0,0,1-2,2H9V17H29a2.006,2.006,0,0,1,2,2V49Zm6,2H35a2.006,2.006,0,0,1-2-2V19a2.006,2.006,0,0,1,2-2h2V51Zm18,0H43V17H55V51Z"></path><path d="M28,21H12a1,1,0,0,0,0,2H28A1,1,0,0,0,28,21Z"></path><path d="M12,29H22a1,1,0,0,0,0-2H12A1,1,0,0,0,12,29Z"></path><path d="M28,27H25a1,1,0,0,0,0,2h3A1,1,0,0,0,28,27Z"></path><path d="M28,39H18a1,1,0,0,0,0,2H28A1,1,0,0,0,28,39Z"></path><path d="M12,41h3a1,1,0,0,0,0-2H12A1,1,0,0,0,12,41Z"></path><path d="M28,33H12a1,1,0,0,0,0,2H28A1,1,0,0,0,28,33Z"></path><path d="M28,45H12a1,1,0,0,0,0,2H28A1,1,0,0,0,28,45Z"></path></svg>