<svg xmlns="http://www.w3.org/2000/svg" xmlns:xlink="http://www.w3.org/1999/xlink" version="1.1" x="0px" y="0px" viewBox="0 0 100 100" enable-background="new 0 0 100 100" xml:space="preserve"><g><path d="M66.758,42.898c0.172-7.554-1.646-13.772-5.244-17.633c-2.945-3.162-6.897-4.766-11.748-4.766   c-4.841,0-8.791,1.612-11.738,4.792c-4.617,4.982-5.391,12.426-5.274,17.629c-2.502,0.94-4.292,3.336-4.292,6.166v23.672   c0,3.648,2.958,6.605,6.606,6.605H64.52c3.648,0,6.605-2.957,6.605-6.605V49.087C71.125,46.23,69.3,43.818,66.758,42.898z    M43.762,30.605c1.427-1.541,3.391-2.289,6.005-2.289c2.629,0,4.601,0.745,6.028,2.277c2.141,2.298,3.262,6.571,3.171,11.89H40.561   C40.477,37.262,41.627,32.908,43.762,30.605z M52.373,60.747v5.185c0,1.438-1.167,2.605-2.605,2.605   c-1.439,0-2.605-1.167-2.605-2.605v-5.185c-1.274-0.847-2.116-2.291-2.116-3.935c0-2.607,2.114-4.723,4.722-4.723   s4.722,2.114,4.722,4.723C54.489,58.456,53.646,59.9,52.373,60.747z"></path></g></svg>