<svg xmlns="http://www.w3.org/2000/svg" xmlns:xlink="http://www.w3.org/1999/xlink" version="1.1" x="0px" y="0px" viewBox="0 0 96 96" style="enable-background:new 0 0 96 96;" xml:space="preserve"><style type="text/css">
	.st0{fill-rule:evenodd;clip-rule:evenodd;}
</style><g><path class="st0" d="M49,4.9l36.8,18.3c0.9,0.4,1.3,1.3,1.3,2.2c-1,16.4-5.2,29.6-11.8,40.4c-6.6,10.8-15.5,19-26.1,25.3   c-0.8,0.5-1.7,0.4-2.4,0c-10.5-6.3-19.5-14.5-26.1-25.3C14.2,54.9,10,41.7,9,25.3c-0.1-1,0.5-1.8,1.3-2.2L47,4.9   C47.6,4.5,48.4,4.6,49,4.9L49,4.9z M51.7,60h-7.5l0,0c-0.3,0-0.5-0.1-0.8-0.1c-1.2-0.4-1.8-1.7-1.4-2.9l2.4-6.8   c-1.2-0.6-2.3-1.6-3-2.7c-0.8-1.2-1.3-2.7-1.3-4.2c0-2.2,0.9-4.1,2.3-5.5c1.4-1.4,3.3-2.3,5.5-2.3c2.1,0,4.1,0.9,5.5,2.3h0   c1.4,1.4,2.3,3.3,2.3,5.5c0,1.5-0.5,3-1.2,4.2c-0.7,1.1-1.8,2.1-3,2.7l2.3,6.7c0.1,0.3,0.2,0.6,0.2,0.9C54,59,53,60,51.7,60   L51.7,60z"></path></g></svg>