<?xml version="1.0" encoding="UTF-8"?>
<svg clip-rule="evenodd" fill-rule="evenodd" image-rendering="optimizeQuality" shape-rendering="geometricPrecision" text-rendering="geometricPrecision" version="1.1" viewBox="0 0 224 274" xml:space="preserve" xmlns="http://www.w3.org/2000/svg"><defs><style type="text/css">
    .fil0 {fill:currentColor}
  </style></defs><path class="fil0" d="m44 129h97c5 0 9 4 9 9s-4 9-9 9h-97c-5 0-9-4-9-9s4-9 9-9zm0 42h97c5 0 9 4 9 9s-4 9-9 9h-97c-5 0-9-4-9-9s4-9 9-9zm0 42h63c5 0 9 4 9 9s-4 9-9 9h-63c-5 0-9-4-9-9s4-9 9-9zm-22-173h90v9c0 35 28 64 63 64 4 0 7-1 10-1v140c0 12-10 22-22 22h-141c-12 0-22-10-22-22v-190c0-12 10-22 22-22zm153-40c27 0 49 22 49 49s-22 49-49 49-49-22-49-49 22-49 49-49zm-6 28c0-4 3-7 6-7 4 0 7 3 7 7v14h14c4 0 7 3 7 7s-3 7-7 7h-14v14c0 4-3 7-7 7-3 0-6-3-6-7v-14h-15c-3 0-6-3-6-7s3-7 6-7h15v-14z"/></svg>
