<?xml version="1.0" encoding="utf-8"?>
<!-- Generator: Adobe Illustrator 25.3.0, SVG Export Plug-In . SVG Version: 6.00 Build 0)  -->
<svg version="1.1" id="Layer_1" xmlns="http://www.w3.org/2000/svg" xmlns:xlink="http://www.w3.org/1999/xlink" x="0px" y="0px"
	 viewBox="0 0 164 45" style="enable-background:new 0 0 164 45;" xml:space="preserve">
<style type="text/css">
	.st0{fill-rule:evenodd;clip-rule:evenodd;}
</style>
<path class="st0" d="M3.22,16.85h6.92v23.08H3.22V16.85z"/>
<path class="st0" d="M19.84,16.85h6.92v23.08h-6.92V16.85z"/>
<path class="st0" d="M11.53,16.85h6.92v11.54h-6.92V16.85z"/>
<g>
	<path d="M33.84,37.14c-0.07-0.07-0.11-0.16-0.11-0.27V22.21c0-0.11,0.04-0.2,0.11-0.27c0.07-0.07,0.16-0.11,0.27-0.11h1.36
		c0.11,0,0.2,0.04,0.27,0.11c0.07,0.07,0.11,0.16,0.11,0.27v1.47c0.44-0.73,1.01-1.28,1.73-1.65s1.51-0.56,2.38-0.56
		c1.14,0,2.14,0.27,2.98,0.8c0.84,0.54,1.45,1.27,1.81,2.19c0.38-0.96,0.97-1.7,1.77-2.21c0.8-0.51,1.71-0.76,2.72-0.76
		c1.54,0,2.79,0.47,3.74,1.42c0.95,0.94,1.43,2.19,1.43,3.73v10.21c0,0.11-0.04,0.2-0.11,0.27c-0.07,0.07-0.16,0.11-0.27,0.11h-1.36
		c-0.11,0-0.2-0.04-0.27-0.11c-0.07-0.07-0.11-0.16-0.11-0.27v-9.8c0-1.16-0.3-2.05-0.91-2.66c-0.61-0.61-1.43-0.91-2.46-0.91
		c-1.13,0-2.04,0.4-2.74,1.2c-0.7,0.8-1.05,1.9-1.05,3.3v8.88c0,0.11-0.04,0.2-0.11,0.27c-0.07,0.07-0.16,0.11-0.27,0.11H43.4
		c-0.11,0-0.2-0.04-0.27-0.11c-0.07-0.07-0.11-0.16-0.11-0.27v-9.83c0-1.16-0.3-2.05-0.91-2.66c-0.61-0.61-1.43-0.91-2.46-0.91
		c-1.13,0-2.04,0.4-2.74,1.2c-0.7,0.8-1.05,1.9-1.05,3.3v8.91c0,0.11-0.04,0.2-0.11,0.27c-0.07,0.07-0.16,0.11-0.27,0.11h-1.36
		C34,37.25,33.91,37.21,33.84,37.14z"/>
	<path d="M60.31,37.19c-0.8-0.22-1.49-0.54-2.07-0.95c-0.07-0.04-0.12-0.1-0.15-0.18c-0.03-0.08-0.02-0.17,0.01-0.26l0.57-1.14
		c0.09-0.15,0.21-0.22,0.35-0.22c0.04,0,0.11,0.02,0.22,0.05c1.2,0.73,2.41,1.09,3.62,1.09c0.96,0,1.72-0.21,2.27-0.64
		c0.55-0.43,0.83-1.03,0.83-1.81c0-0.47-0.12-0.86-0.37-1.16c-0.25-0.3-0.57-0.54-0.97-0.74c-0.4-0.19-1.03-0.45-1.88-0.78
		c-1.11-0.42-1.98-0.81-2.61-1.17c-0.64-0.36-1.13-0.83-1.5-1.39c-0.36-0.56-0.54-1.28-0.54-2.15c0-1.4,0.46-2.46,1.39-3.19
		c0.93-0.73,2.12-1.09,3.57-1.09c0.76,0,1.52,0.11,2.27,0.33c0.75,0.22,1.43,0.53,2.03,0.93c0.07,0.04,0.12,0.1,0.14,0.19
		c0.02,0.09,0.01,0.17-0.03,0.25l-0.54,1.12c-0.04,0.11-0.1,0.18-0.2,0.22c-0.1,0.04-0.2,0.02-0.31-0.05
		c-1.16-0.69-2.28-1.04-3.35-1.04c-0.89,0-1.58,0.19-2.08,0.57c-0.5,0.38-0.75,0.94-0.75,1.66c0,0.56,0.14,1.02,0.41,1.36
		c0.27,0.35,0.6,0.6,0.98,0.78c0.38,0.17,0.99,0.41,1.82,0.72c1.07,0.38,1.92,0.74,2.53,1.06s1.13,0.76,1.53,1.31
		c0.4,0.54,0.6,1.25,0.6,2.12c0,1.4-0.49,2.5-1.46,3.31c-0.97,0.81-2.27,1.21-3.88,1.21C61.93,37.52,61.11,37.41,60.31,37.19z"/>
	<path d="M71.97,37.14c-0.07-0.07-0.11-0.16-0.11-0.27V22.21c0-0.11,0.04-0.2,0.11-0.27c0.07-0.07,0.16-0.11,0.27-0.11h1.36
		c0.11,0,0.2,0.04,0.27,0.11c0.07,0.07,0.11,0.16,0.11,0.27v1.47c0.44-0.73,1.01-1.28,1.73-1.65s1.51-0.56,2.38-0.56
		c1.14,0,2.14,0.27,2.98,0.8c0.84,0.54,1.45,1.27,1.81,2.19c0.38-0.96,0.97-1.7,1.77-2.21c0.8-0.51,1.71-0.76,2.72-0.76
		c1.54,0,2.79,0.47,3.74,1.42c0.95,0.94,1.43,2.19,1.43,3.73v10.21c0,0.11-0.04,0.2-0.11,0.27c-0.07,0.07-0.16,0.11-0.27,0.11h-1.36
		c-0.11,0-0.2-0.04-0.27-0.11c-0.07-0.07-0.11-0.16-0.11-0.27v-9.8c0-1.16-0.3-2.05-0.91-2.66c-0.61-0.61-1.43-0.91-2.46-0.91
		c-1.13,0-2.04,0.4-2.74,1.2c-0.7,0.8-1.05,1.9-1.05,3.3v8.88c0,0.11-0.04,0.2-0.11,0.27c-0.07,0.07-0.16,0.11-0.27,0.11h-1.36
		c-0.11,0-0.2-0.04-0.27-0.11c-0.07-0.07-0.11-0.16-0.11-0.27v-9.83c0-1.16-0.3-2.05-0.91-2.66c-0.61-0.61-1.43-0.91-2.46-0.91
		c-1.13,0-2.04,0.4-2.74,1.2c-0.7,0.8-1.05,1.9-1.05,3.3v8.91c0,0.11-0.04,0.2-0.11,0.27c-0.07,0.07-0.16,0.11-0.27,0.11h-1.36
		C72.13,37.25,72.04,37.21,71.97,37.14z"/>
	<path d="M94.71,40.13c-0.07-0.07-0.11-0.16-0.11-0.27v-1.25c0-0.11,0.04-0.2,0.11-0.27c0.07-0.07,0.16-0.11,0.27-0.11h12.58
		c0.11,0,0.2,0.04,0.27,0.11c0.07,0.07,0.11,0.16,0.11,0.27v1.25c0,0.11-0.04,0.2-0.11,0.27c-0.07,0.07-0.16,0.11-0.27,0.11H94.98
		C94.87,40.24,94.78,40.21,94.71,40.13z"/>
	<path d="M112.33,36.06c-0.75-0.79-1.12-1.78-1.12-2.98v-9.26h-1.8c-0.11,0-0.2-0.04-0.27-0.11c-0.07-0.07-0.11-0.16-0.11-0.27
		v-1.23c0-0.11,0.04-0.2,0.11-0.27c0.07-0.07,0.16-0.11,0.27-0.11h1.8v-2.86c0-0.11,0.04-0.2,0.11-0.27
		c0.07-0.07,0.16-0.11,0.27-0.11h1.36c0.11,0,0.2,0.04,0.27,0.11c0.07,0.07,0.11,0.16,0.11,0.27v2.86h4.79
		c0.11,0,0.2,0.04,0.27,0.11c0.07,0.07,0.11,0.16,0.11,0.27v1.25c0,0.11-0.04,0.2-0.11,0.27s-0.16,0.11-0.27,0.11h-4.79v8.99
		c0,0.71,0.21,1.28,0.64,1.7c0.43,0.43,0.99,0.65,1.67,0.67l2.48,0.03c0.11,0,0.2,0.04,0.27,0.11s0.11,0.16,0.11,0.27v1.25
		c0,0.11-0.04,0.2-0.11,0.27c-0.07,0.07-0.16,0.11-0.27,0.11h-2.72C114.1,37.25,113.07,36.85,112.33,36.06z"/>
	<path d="M124.31,36.46c-0.91-0.53-1.62-1.25-2.15-2.17c-0.53-0.92-0.79-1.91-0.79-2.98v-3.89c0-1.07,0.26-2.07,0.79-2.98
		c0.53-0.92,1.24-1.64,2.15-2.17c0.91-0.53,1.9-0.79,2.97-0.79c1.07,0,2.06,0.26,2.97,0.79c0.91,0.53,1.62,1.25,2.15,2.17
		c0.53,0.92,0.79,1.91,0.79,2.98v1.85c0,0.27-0.09,0.5-0.29,0.69c-0.19,0.19-0.42,0.29-0.7,0.29h-8.71v1.2
		c0,0.69,0.17,1.33,0.5,1.91s0.79,1.04,1.38,1.38s1.22,0.5,1.91,0.5h3.95c0.11,0,0.2,0.04,0.27,0.11s0.11,0.16,0.11,0.27v1.25
		c0,0.11-0.04,0.2-0.11,0.27c-0.07,0.07-0.16,0.11-0.27,0.11h-3.95C126.21,37.25,125.22,36.98,124.31,36.46z M131.07,28.29v-1.01
		c0-0.69-0.17-1.33-0.5-1.91c-0.34-0.58-0.79-1.04-1.38-1.38c-0.58-0.34-1.22-0.5-1.91-0.5c-0.69,0-1.33,0.17-1.91,0.5
		c-0.58,0.34-1.04,0.79-1.38,1.38c-0.34,0.58-0.5,1.22-0.5,1.91v1.01H131.07z"/>
	<path d="M139.48,36.81c-0.91-0.53-1.62-1.25-2.15-2.17c-0.53-0.92-0.79-1.91-0.79-2.98v-4.25c0-1.07,0.26-2.07,0.79-2.98
		c0.53-0.92,1.24-1.64,2.15-2.17c0.91-0.53,1.9-0.79,2.97-0.79c0.78,0,1.52,0.15,2.22,0.44c0.7,0.29,1.31,0.69,1.84,1.2
		c0.11,0.11,0.16,0.24,0.16,0.38c0,0.13-0.05,0.26-0.16,0.41c-0.18,0.2-0.39,0.41-0.63,0.63c-0.13,0.11-0.26,0.16-0.41,0.16
		c-0.16,0-0.31-0.06-0.44-0.19c-0.73-0.67-1.59-1.01-2.59-1.01c-0.69,0-1.33,0.17-1.91,0.5c-0.58,0.34-1.04,0.79-1.38,1.38
		c-0.34,0.58-0.5,1.22-0.5,1.91v4.52c0,0.69,0.17,1.33,0.5,1.91s0.79,1.04,1.38,1.38s1.22,0.5,1.91,0.5c1,0,1.86-0.34,2.59-1.01
		c0.13-0.13,0.27-0.19,0.44-0.19c0.15,0,0.28,0.05,0.41,0.16c0.22,0.18,0.43,0.39,0.63,0.63c0.11,0.11,0.16,0.25,0.16,0.41
		c0,0.15-0.05,0.27-0.16,0.38c-0.53,0.51-1.14,0.91-1.84,1.2c-0.7,0.29-1.44,0.44-2.22,0.44C141.38,37.6,140.39,37.34,139.48,36.81z
		"/>
	<path d="M150.73,37.14c-0.07-0.07-0.11-0.16-0.11-0.27V16.96c0-0.11,0.04-0.2,0.11-0.27c0.07-0.07,0.16-0.11,0.27-0.11h1.36
		c0.11,0,0.2,0.04,0.27,0.11c0.07,0.07,0.11,0.16,0.11,0.27v6.78c0.47-0.74,1.08-1.31,1.84-1.69c0.75-0.38,1.6-0.57,2.55-0.57
		c1.54,0,2.79,0.47,3.75,1.42s1.43,2.19,1.43,3.73v10.24c0,0.11-0.04,0.2-0.11,0.27c-0.07,0.07-0.16,0.11-0.27,0.11h-1.36
		c-0.11,0-0.2-0.04-0.27-0.11c-0.07-0.07-0.11-0.16-0.11-0.27v-9.83c0-1.16-0.3-2.05-0.91-2.66c-0.61-0.61-1.43-0.91-2.46-0.91
		c-1.22,0-2.2,0.4-2.94,1.2c-0.75,0.8-1.12,1.9-1.12,3.3v8.91c0,0.11-0.04,0.2-0.11,0.27c-0.07,0.07-0.16,0.11-0.27,0.11H151
		C150.89,37.25,150.8,37.21,150.73,37.14z"/>
</g>
<g>
	<path d="M7.35,11.64L4.82,7.72v6.94H4.21V6.25h0.27l2.96,4.48l2.91-4.48h0.33v8.42h-0.61V7.66l-2.49,3.92L7.35,11.64z"/>
	<path d="M12.79,13.83c0.15,0.07,0.33,0.14,0.54,0.22c0.21,0.08,0.45,0.14,0.71,0.19c0.26,0.05,0.53,0.07,0.8,0.07
		c0.48,0,0.88-0.08,1.2-0.23c0.32-0.15,0.57-0.35,0.74-0.6c0.17-0.25,0.25-0.51,0.25-0.79c0-0.31-0.08-0.58-0.25-0.82
		c-0.17-0.24-0.41-0.46-0.74-0.67c-0.33-0.21-0.75-0.41-1.25-0.62c-0.36-0.15-0.69-0.31-0.97-0.48c-0.28-0.17-0.52-0.36-0.71-0.56
		s-0.33-0.43-0.43-0.67s-0.15-0.52-0.15-0.82c0-0.38,0.1-0.72,0.31-1.02c0.21-0.3,0.5-0.54,0.88-0.71c0.38-0.17,0.83-0.26,1.36-0.26
		c0.41,0,0.8,0.05,1.16,0.15c0.36,0.1,0.67,0.21,0.92,0.33L16.9,6.98c-0.14-0.07-0.3-0.13-0.46-0.2c-0.17-0.07-0.36-0.12-0.57-0.16
		c-0.21-0.04-0.46-0.06-0.75-0.06c-0.59,0-1.06,0.15-1.41,0.45s-0.52,0.67-0.52,1.1c0,0.31,0.08,0.59,0.25,0.84
		c0.17,0.25,0.42,0.48,0.75,0.69c0.33,0.21,0.74,0.42,1.23,0.63c0.37,0.16,0.7,0.32,0.98,0.49c0.28,0.17,0.51,0.35,0.7,0.55
		c0.19,0.2,0.33,0.41,0.42,0.64s0.14,0.49,0.14,0.77c0,0.41-0.11,0.78-0.32,1.1c-0.21,0.32-0.53,0.57-0.95,0.74
		c-0.42,0.18-0.93,0.27-1.54,0.27c-0.17,0-0.37-0.01-0.6-0.04c-0.23-0.03-0.45-0.07-0.68-0.12c-0.23-0.05-0.43-0.11-0.6-0.17
		c-0.17-0.06-0.3-0.12-0.37-0.18L12.79,13.83z"/>
	<path d="M22.54,11.64l-2.53-3.91v6.94H19.4V6.25h0.27l2.96,4.48l2.91-4.48h0.33v8.42h-0.61V7.66l-2.49,3.92L22.54,11.64z"/>
	<path d="M36.57,6.73h-2.88v7.94h-0.61V6.73h-2.87V6.25h6.3L36.57,6.73z"/>
	<path d="M37.82,11.67c0.01,0.48,0.08,0.92,0.23,1.32s0.37,0.72,0.68,0.97c0.31,0.24,0.71,0.37,1.21,0.37
		c0.44,0,0.79-0.04,1.06-0.13c0.27-0.09,0.51-0.18,0.71-0.29l0.25,0.46c-0.17,0.1-0.37,0.18-0.61,0.25
		c-0.24,0.07-0.48,0.12-0.71,0.16c-0.24,0.04-0.44,0.06-0.6,0.06c-0.65,0-1.19-0.14-1.61-0.41s-0.73-0.65-0.93-1.13
		s-0.3-1.03-0.3-1.65c0-0.6,0.09-1.14,0.28-1.61c0.19-0.47,0.48-0.84,0.87-1.11c0.39-0.27,0.88-0.41,1.47-0.41
		c0.45,0,0.85,0.13,1.2,0.4c0.35,0.27,0.62,0.63,0.82,1.1s0.3,0.99,0.3,1.57v0.1H37.82z M41.5,11.21c-0.03-0.4-0.11-0.76-0.24-1.1
		c-0.13-0.33-0.32-0.6-0.56-0.8s-0.57-0.3-0.97-0.3c-0.4,0-0.73,0.1-0.99,0.3s-0.47,0.47-0.61,0.8c-0.14,0.33-0.24,0.7-0.28,1.1
		H41.5z"/>
	<path d="M47.69,14.32c-0.17,0.1-0.36,0.19-0.58,0.27c-0.22,0.08-0.45,0.14-0.67,0.18c-0.22,0.04-0.42,0.06-0.59,0.06
		c-0.59,0-1.08-0.14-1.49-0.41s-0.71-0.65-0.92-1.13c-0.21-0.48-0.31-1.03-0.31-1.65c0-0.6,0.11-1.14,0.33-1.61
		c0.22-0.47,0.54-0.84,0.96-1.11s0.92-0.41,1.51-0.41c0.17,0,0.36,0.02,0.58,0.07c0.22,0.05,0.45,0.1,0.67,0.18
		c0.22,0.07,0.41,0.17,0.57,0.27L47.5,9.43c-0.21-0.1-0.43-0.19-0.67-0.29c-0.24-0.09-0.55-0.14-0.93-0.14
		c-0.44,0-0.82,0.12-1.14,0.36s-0.57,0.56-0.74,0.95s-0.26,0.83-0.26,1.3c0,0.49,0.08,0.94,0.24,1.35c0.16,0.41,0.4,0.74,0.71,0.98
		c0.31,0.24,0.69,0.37,1.13,0.37c0.41,0,0.73-0.04,0.95-0.13c0.22-0.09,0.44-0.18,0.65-0.29L47.69,14.32z"/>
	<path d="M49.19,14.67V6.05l0.61-0.12v8.74H49.19z M49.78,9.61c0.17-0.2,0.38-0.38,0.61-0.54s0.48-0.3,0.75-0.4
		c0.26-0.1,0.52-0.15,0.77-0.15c0.43,0,0.77,0.09,1.03,0.26c0.26,0.17,0.45,0.41,0.57,0.71c0.12,0.3,0.18,0.64,0.18,1.03v4.17h-0.61
		V10.5c0-0.41-0.07-0.76-0.22-1.05c-0.15-0.29-0.45-0.43-0.9-0.43c-0.24,0-0.48,0.05-0.72,0.15c-0.24,0.1-0.49,0.25-0.73,0.43
		c-0.24,0.18-0.48,0.39-0.71,0.63L49.78,9.61z"/>
	<path d="M55.38,14.67v-6h0.47l0.12,0.94c0.17-0.2,0.38-0.38,0.61-0.54c0.23-0.17,0.48-0.3,0.75-0.4c0.26-0.1,0.52-0.15,0.77-0.15
		c0.43,0,0.77,0.09,1.03,0.26c0.26,0.17,0.45,0.41,0.57,0.71c0.12,0.3,0.18,0.64,0.18,1.03v4.17h-0.61V10.5
		c0-0.41-0.07-0.76-0.22-1.05c-0.15-0.29-0.45-0.43-0.9-0.43c-0.24,0-0.48,0.05-0.72,0.15c-0.24,0.1-0.49,0.25-0.73,0.43
		c-0.24,0.18-0.48,0.39-0.71,0.63v4.44H55.38z"/>
	<path d="M63.91,14.83c-0.59-0.01-1.09-0.15-1.49-0.42c-0.4-0.27-0.7-0.65-0.91-1.13c-0.21-0.48-0.31-1.03-0.31-1.65
		c0-0.59,0.11-1.13,0.33-1.6c0.22-0.47,0.54-0.84,0.95-1.12c0.42-0.28,0.92-0.41,1.5-0.41c0.59,0,1.09,0.14,1.49,0.41
		c0.4,0.28,0.7,0.65,0.9,1.13c0.2,0.48,0.3,1.03,0.3,1.65c0,0.59-0.11,1.13-0.33,1.6c-0.22,0.47-0.53,0.84-0.95,1.11
		C64.99,14.68,64.49,14.82,63.91,14.83z M63.91,14.32c0.45,0,0.83-0.12,1.15-0.36c0.32-0.24,0.56-0.56,0.74-0.96
		s0.26-0.83,0.26-1.29c0-0.5-0.08-0.95-0.24-1.36c-0.16-0.41-0.39-0.73-0.7-0.98c-0.31-0.24-0.69-0.37-1.14-0.37
		c-0.44,0-0.82,0.12-1.14,0.36s-0.57,0.56-0.74,0.95s-0.26,0.83-0.26,1.3c0,0.49,0.08,0.94,0.24,1.35c0.16,0.41,0.4,0.74,0.71,0.98
		C63.08,14.2,63.46,14.32,63.91,14.32z"/>
	<path d="M68.17,14.67V6.05l0.61-0.12v8.74H68.17z"/>
	<path d="M72.97,14.83c-0.59-0.01-1.09-0.15-1.49-0.42c-0.4-0.27-0.7-0.65-0.91-1.13c-0.21-0.48-0.31-1.03-0.31-1.65
		c0-0.59,0.11-1.13,0.33-1.6c0.22-0.47,0.54-0.84,0.95-1.12c0.42-0.28,0.92-0.41,1.5-0.41c0.59,0,1.09,0.14,1.49,0.41
		c0.4,0.28,0.7,0.65,0.9,1.13c0.2,0.48,0.3,1.03,0.3,1.65c0,0.59-0.11,1.13-0.33,1.6c-0.22,0.47-0.53,0.84-0.95,1.11
		C74.05,14.68,73.56,14.82,72.97,14.83z M72.97,14.32c0.45,0,0.83-0.12,1.15-0.36c0.32-0.24,0.56-0.56,0.74-0.96
		s0.26-0.83,0.26-1.29c0-0.5-0.08-0.95-0.24-1.36c-0.16-0.41-0.39-0.73-0.7-0.98c-0.31-0.24-0.69-0.37-1.14-0.37
		c-0.44,0-0.82,0.12-1.14,0.36s-0.57,0.56-0.74,0.95s-0.26,0.83-0.26,1.3c0,0.49,0.08,0.94,0.24,1.35c0.16,0.41,0.4,0.74,0.71,0.98
		C72.15,14.2,72.52,14.32,72.97,14.32z"/>
	<path d="M81.29,13.86c-0.17,0.19-0.35,0.36-0.55,0.51c-0.2,0.15-0.42,0.26-0.66,0.34c-0.24,0.08-0.49,0.12-0.76,0.12
		c-0.59,0-1.07-0.14-1.45-0.41s-0.67-0.65-0.85-1.13c-0.19-0.48-0.28-1.03-0.28-1.65c0-0.6,0.1-1.14,0.3-1.61
		c0.2-0.47,0.5-0.84,0.9-1.11c0.4-0.27,0.89-0.41,1.48-0.41c0.26,0,0.52,0.05,0.78,0.15c0.26,0.1,0.49,0.22,0.69,0.35
		c0.21,0.14,0.36,0.27,0.47,0.39L81.1,9.8c-0.21-0.2-0.45-0.38-0.73-0.54c-0.28-0.17-0.61-0.25-0.99-0.25
		c-0.44,0-0.81,0.12-1.11,0.36c-0.3,0.24-0.53,0.56-0.68,0.95s-0.23,0.83-0.23,1.3c0,0.49,0.07,0.94,0.21,1.35s0.35,0.74,0.64,0.98
		c0.29,0.24,0.66,0.37,1.1,0.37c0.41,0,0.75-0.09,1.01-0.26c0.26-0.17,0.5-0.38,0.71-0.62L81.29,13.86z M81.59,15.44
		c0,0.4-0.09,0.75-0.27,1.06c-0.18,0.31-0.44,0.56-0.79,0.74c-0.35,0.18-0.79,0.27-1.32,0.27c-0.12,0-0.28-0.01-0.46-0.04
		c-0.18-0.02-0.37-0.06-0.58-0.1c-0.2-0.05-0.39-0.1-0.57-0.16c-0.18-0.06-0.32-0.13-0.44-0.2l0.24-0.43
		c0.28,0.12,0.55,0.23,0.82,0.31c0.26,0.08,0.59,0.12,0.97,0.12c0.5,0,0.93-0.12,1.27-0.35c0.35-0.24,0.52-0.6,0.52-1.1V9.57
		l0.27-0.9h0.33V15.44z"/>
	<path d="M83.35,7.1c-0.09-0.09-0.13-0.2-0.13-0.33s0.04-0.24,0.13-0.33s0.2-0.14,0.34-0.14c0.13,0,0.25,0.05,0.34,0.14
		c0.1,0.09,0.14,0.2,0.14,0.33s-0.05,0.24-0.14,0.33s-0.21,0.14-0.35,0.14S83.44,7.2,83.35,7.1z M83.39,14.67v-6H84v6H83.39z"/>
	<path d="M85.99,11.67c0.01,0.48,0.08,0.92,0.23,1.32s0.37,0.72,0.68,0.97c0.31,0.24,0.71,0.37,1.21,0.37
		c0.44,0,0.79-0.04,1.06-0.13c0.27-0.09,0.51-0.18,0.71-0.29l0.25,0.46c-0.17,0.1-0.37,0.18-0.61,0.25
		c-0.24,0.07-0.48,0.12-0.71,0.16c-0.24,0.04-0.44,0.06-0.6,0.06c-0.65,0-1.19-0.14-1.61-0.41s-0.73-0.65-0.93-1.13
		s-0.3-1.03-0.3-1.65c0-0.6,0.09-1.14,0.28-1.61c0.19-0.47,0.48-0.84,0.87-1.11c0.39-0.27,0.88-0.41,1.47-0.41
		c0.45,0,0.85,0.13,1.2,0.4c0.35,0.27,0.62,0.63,0.82,1.1s0.3,0.99,0.3,1.57v0.1H85.99z M89.67,11.21c-0.03-0.4-0.11-0.76-0.24-1.1
		c-0.13-0.33-0.32-0.6-0.56-0.8s-0.57-0.3-0.97-0.3c-0.4,0-0.73,0.1-0.99,0.3s-0.47,0.47-0.61,0.8c-0.14,0.33-0.24,0.7-0.28,1.1
		H89.67z"/>
	<path d="M91.55,13.85c0.15,0.07,0.31,0.14,0.48,0.21c0.17,0.07,0.35,0.14,0.54,0.19c0.19,0.05,0.39,0.07,0.6,0.07
		c0.33,0,0.61-0.05,0.85-0.14c0.24-0.1,0.42-0.23,0.54-0.4c0.13-0.17,0.19-0.37,0.19-0.59c0-0.2-0.07-0.38-0.21-0.54
		c-0.14-0.16-0.33-0.31-0.57-0.45c-0.24-0.14-0.51-0.26-0.8-0.38c-0.31-0.12-0.59-0.26-0.86-0.42s-0.48-0.34-0.64-0.55
		s-0.24-0.44-0.24-0.7c0-0.47,0.18-0.86,0.53-1.18c0.35-0.32,0.86-0.48,1.54-0.48c0.17,0,0.37,0.02,0.58,0.06
		c0.21,0.04,0.42,0.1,0.62,0.17S95.06,8.9,95.19,9l-0.25,0.43c-0.17-0.08-0.37-0.17-0.61-0.27c-0.24-0.1-0.55-0.15-0.92-0.15
		c-0.42,0-0.76,0.11-1.02,0.33s-0.38,0.48-0.38,0.77c0,0.28,0.15,0.52,0.45,0.72c0.3,0.2,0.65,0.38,1.06,0.54
		c0.33,0.13,0.63,0.28,0.9,0.45s0.49,0.36,0.66,0.58c0.17,0.22,0.25,0.47,0.25,0.75c0,0.53-0.17,0.94-0.52,1.24
		c-0.35,0.3-0.9,0.45-1.67,0.45c-0.17,0-0.36-0.02-0.59-0.06c-0.23-0.04-0.45-0.09-0.67-0.16s-0.41-0.15-0.56-0.25L91.55,13.85z"/>
</g>
<g>
</g>
<g>
</g>
<g>
</g>
<g>
</g>
<g>
</g>
<g>
</g>
</svg>
