<svg xmlns="http://www.w3.org/2000/svg" data-name="Layer 3" viewBox="0 0 48 48" x="0px" y="0px"><title>designer_design graphic_creative</title><path d="M25.73,20.65l-2.49-.62a0.978,0.978,0,0,0-.69.08L21,20.88l-1.55-.77a0.978,0.978,0,0,0-.69-0.08l-2.49.62A3,3,0,0,0,14,23.56V28a1,1,0,0,0,1,1H27a1,1,0,0,0,1-1V23.56A3,3,0,0,0,25.73,20.65Z"></path><path d="M21,20c2.4,0,4-3.01,4-5a4,4,0,0,0-8,0C17,16.99,18.6,20,21,20Z"></path><path d="M44.88,39.46L40.417,35,35,40.417,39.46,44.88A3.833,3.833,0,0,0,44.88,39.46Z"></path><path d="M36.86,31.44a19.032,19.032,0,1,0-5.42,5.42L33.583,39,39,33.583ZM21,36A15,15,0,1,1,36,21,15.018,15.018,0,0,1,21,36Z"></path></svg>