<svg xmlns="http://www.w3.org/2000/svg" data-name="Layer 3" viewBox="0 0 100 100" x="0px" y="0px"><title>restaurant_food_cafe</title><path d="M46.371,35.484a6.005,6.005,0,0,0,3.214-1.138c0.129-.08.289-0.179,0.415-0.25,0.126,0.071.286,0.17,0.415,0.25a6.005,6.005,0,0,0,3.214,1.138,3.78,3.78,0,0,0,3.537-2.394,1.466,1.466,0,0,0-.843-1.885,1.438,1.438,0,0,0-1.863.834,0.876,0.876,0,0,1-.831.541,3.56,3.56,0,0,1-1.685-.7A3.743,3.743,0,0,0,50,31.129a3.743,3.743,0,0,0-1.944.749,3.56,3.56,0,0,1-1.685.7,0.871,0.871,0,0,1-.818-0.51,1.452,1.452,0,1,0-2.718,1.019A3.78,3.78,0,0,0,46.371,35.484Z"></path><path d="M6.452,34.032h5.269a5.8,5.8,0,0,0,11.235,0h5.269a1.456,1.456,0,0,0,1.452-1.452V30.4a12.374,12.374,0,0,0-7.984-11.548V13.71a1.456,1.456,0,0,0-1.452-1.452H18.79V6.452a1.452,1.452,0,0,0-2.9,0v5.806H14.435a1.456,1.456,0,0,0-1.452,1.452v5.146A12.374,12.374,0,0,0,5,30.4v2.177A1.456,1.456,0,0,0,6.452,34.032Zm13.384,0a2.873,2.873,0,0,1-4.994,0h4.994Z"></path><path d="M87.016,18.856V13.71a1.456,1.456,0,0,0-1.452-1.452H84.113V6.452a1.452,1.452,0,0,0-2.9,0v5.806H79.758a1.456,1.456,0,0,0-1.452,1.452v5.146A12.374,12.374,0,0,0,70.323,30.4v2.177a1.456,1.456,0,0,0,1.452,1.452h5.269a5.8,5.8,0,0,0,11.235,0h5.269A1.456,1.456,0,0,0,95,32.581V30.4A12.374,12.374,0,0,0,87.016,18.856ZM82.661,35.484a2.889,2.889,0,0,1-2.5-1.452h4.994A2.889,2.889,0,0,1,82.661,35.484Z"></path><path d="M93.548,92.1H89.919a1.452,1.452,0,0,0,0,2.9h3.629A1.452,1.452,0,0,0,93.548,92.1Z"></path><path d="M85.565,92.1H69.6V69.6h0.726c4.282,0,5.806-2.25,5.806-4.355a0.549,0.549,0,0,0-.007-0.109L75.113,51.72a8.769,8.769,0,0,0-7.04-7.86l-10.815-1.64V39.839a1.348,1.348,0,0,0-.044-0.348,10.144,10.144,0,0,0,4.4-8.361V20.06c1.735-.465,3.629-1.967,3.629-6.351a6.537,6.537,0,0,0-8.993-6.053,8.679,8.679,0,0,0-12.5,0,6.537,6.537,0,0,0-8.993,6.053c0,4.384,1.894,5.886,3.629,6.351V31.129a10.144,10.144,0,0,0,4.4,8.361,1.348,1.348,0,0,0-.044.348v2.381l-10.88,1.655a8.746,8.746,0,0,0-6.975,7.853L23.878,65.133a0.549,0.549,0,0,0-.007.109c0,2.1,1.524,4.355,5.806,4.355H30.4V92.1H6.452a1.452,1.452,0,0,0,0,2.9H85.565A1.452,1.452,0,0,0,85.565,92.1ZM54.355,18.065a1.452,1.452,0,0,1,2.9,0v2.9h-2.9v-2.9Zm-5.806,0a1.452,1.452,0,0,1,2.9,0v2.9h-2.9v-2.9Zm-5.806,0a1.452,1.452,0,0,1,2.9,0v2.9h-2.9v-2.9ZM41.29,31.129V23.871H58.71v7.258a7.27,7.27,0,0,1-7.258,7.258h-2.9A7.27,7.27,0,0,1,41.29,31.129ZM56.532,73.952A1.452,1.452,0,1,1,57.984,72.5,1.456,1.456,0,0,1,56.532,73.952Zm2.177,0.726a1.452,1.452,0,1,1-1.452,1.452A1.456,1.456,0,0,1,58.71,74.677Zm-2.9,1.452a1.452,1.452,0,1,1-1.452-1.452A1.456,1.456,0,0,1,55.806,76.129ZM50.726,72.5a1.452,1.452,0,1,1,1.452,1.452A1.456,1.456,0,0,1,50.726,72.5Zm0.726,3.629A1.452,1.452,0,1,1,50,74.677,1.456,1.456,0,0,1,51.452,76.129ZM50,49.1l-4.355-2.177V40.869a10.1,10.1,0,0,0,2.9.421h2.9a10.1,10.1,0,0,0,2.9-.421v6.053ZM38.387,60.161h5.806a1.456,1.456,0,0,1,1.452,1.452v4.226a1.441,1.441,0,0,1-1.452,1.436V79.032h-2.9V66.746c-0.355-.032-0.711-0.053-1.067-0.053H38.387V60.161Zm22.5,29.156a2.785,2.785,0,0,1-2.78,2.78H41.893a2.785,2.785,0,0,1-2.78-2.78V81.935H60.887v7.381Zm0.726-22.623H59.777a12.187,12.187,0,0,0-3.518.523,1.458,1.458,0,0,1-1.9-1.378V61.613a1.456,1.456,0,0,1,1.452-1.452h5.806v6.532Z"></path></svg>