<svg xmlns="http://www.w3.org/2000/svg" viewBox="0 0 64 64" x="0px" y="0px"><g data-name="Layer 5"><path d="M21.94,35.68a.9981.9981,0,0,0-.51-1.93L2.75,38.67a.9939.9939,0,0,0-.75.96V52.14a1.0083,1.0083,0,0,0,.71.96L31,61.74V47.16L6.65,39.7Z"></path><path d="M61.25,38.67,42.57,33.75a.9981.9981,0,1,0-.51,1.93L57.35,39.7,33,47.16V61.74L61.29,53.1a1.0083,1.0083,0,0,0,.71-.96V39.63A.9939.9939,0,0,0,61.25,38.67Z"></path><path d="M45.62,15.62a13.62,13.62,0,1,0-27.24,0c0,15.24,12.45,25.77,12.98,26.21a1.0054,1.0054,0,0,0,1.28,0C33.17,41.39,45.62,30.86,45.62,15.62ZM32,22.01a5.41,5.41,0,1,1,5.41-5.41A5.42,5.42,0,0,1,32,22.01Z"></path><path d="M10.67,20.8a1.03,1.03,0,0,0-.66.39L5.84,26.76a1.0029,1.0029,0,0,0,.2,1.4l5.57,4.17a.9843.9843,0,0,0,.6.2.7084.7084,0,0,0,.14-.01.9137.9137,0,0,0,.65-.39l4.18-5.56a1.0016,1.0016,0,0,0-.2-1.4l-5.57-4.18A1.0767,1.0767,0,0,0,10.67,20.8Z"></path><path d="M2.68,17.31l3.87,2.23a1.022,1.022,0,0,0,.5.14,1.0065,1.0065,0,0,0,.87-.5l2.24-3.88a1.0546,1.0546,0,0,0,.1-.76,1.0059,1.0059,0,0,0-.47-.6L5.92,11.7a1.0126,1.0126,0,0,0-.76-.1.9978.9978,0,0,0-.61.47L2.32,15.94A.9984.9984,0,0,0,2.68,17.31Z"></path><path d="M9.2,10.11a1.0054,1.0054,0,0,0,.58.49,1.0323,1.0323,0,0,0,.3.04.9836.9836,0,0,0,.47-.11l3.01-1.58a.9965.9965,0,0,0,.42-1.35L12.4,4.58a.9965.9965,0,0,0-1.35-.42L8.03,5.74a1.0569,1.0569,0,0,0-.49.59,1.0037,1.0037,0,0,0,.07.76Z"></path><path d="M61.27,23.56,54.69,21.3a.9933.9933,0,0,0-1.27.62l-2.27,6.57a1.0287,1.0287,0,0,0,.05.77.9688.9688,0,0,0,.57.5l6.58,2.27a.96.96,0,0,0,.33.06.9932.9932,0,0,0,.94-.68l2.27-6.57a1.0152,1.0152,0,0,0-.62-1.28Z"></path><path d="M51.57,18.41a.9978.9978,0,0,0,.61.47,1.09,1.09,0,0,0,.26.03,1.0092,1.0092,0,0,0,.5-.13l3.87-2.24a.9978.9978,0,0,0,.47-.61,1.0284,1.0284,0,0,0-.1-.75L54.94,11.3a.9984.9984,0,0,0-1.37-.36L49.7,13.17a.9984.9984,0,0,0-.36,1.37Z"></path><path d="M57.35,10.4a1,1,0,0,0,1.41.11l2.59-2.22a.9926.9926,0,0,0,.11-1.41L59.25,4.29a1.0081,1.0081,0,0,0-1.41-.11L55.25,6.4a.9672.9672,0,0,0-.35.68.9821.9821,0,0,0,.24.73Z"></path></g></svg>